

Note : 1 CD RIP. Seeding Task Will Be Delayed. No Extra Watermark Added. Enjoy !



Screens :


 
http://www.shotpix.com/images/69420805994367269531.jpg
 
http://i.imgur.com/mRA25.jpg
 
http://i.imgur.com/imnuS.jpg



Extra Screen Shots :


 
http://i.imgur.com/q1uDz.jpg
 
http://i.imgur.com/0Ke8Q.jpg
 
http://i.imgur.com/FKMNa.jpg
 
http://i.imgur.com/Ib07G.jpg



Media Info : ---



Format                           : AVI
Format/Info                      : Audio Video Interleave
File size                        : 699 MiB
Duration                         : 1h 41mn
Overall bit rate                 : 963 Kbps

Video
ID                               : 0
Format                           : MPEG-4 Visual
Format settings, BVOP            : 1
Format settings, QPel            : No
Format settings, GMC             : No warppoints
Format settings, Matrix          : Custom
Codec ID                         : XVID
Codec ID/Hint                    : XviD
Duration                         : 1h 41mn
Bit rate                         : 837 Kbps
Width                            : 608 pixels
Height                           : 272 pixels
Display aspect ratio             : 2.25:1
Frame rate                       : 29.970 fps
Color space                      : YUV
Chroma subsampling               : 4:2:0
Bit depth                        : 8 bits
Scan type                        : Progressive
Compression mode                 : Lossy
Bits/(Pixel*Frame)               : 0.169
Stream size                      : 608 MiB (87%)


Audio
ID                               : 1
Format                           : MPEG Audio
Format version                   : Version 1
Format profile                   : Layer 3
Mode                             : Joint stereo
Mode extension                   : MS Stereo
Codec ID                         : 55
Codec ID/Hint                    : MP3
Duration                         : 1h 41mn
Bit rate mode                    : Variable
Bit rate                         : 112 Kbps
Nominal bit rate                 : 128 Kbps
Channel(s)                       : 2 channels
Sampling rate                    : 48.0 KHz
Compression mode                 : Lossy
Stream size                      : 81.5 MiB (12%)
Alignment                        : Aligned on interleaves
Interleave, duration             : 24 ms (0.72 video frame)



Torrent Status :


 
http://torrent-stats.info/5a8b/a2ee3ed9.png





